#Comment line ignore any data following # character 
#Hierarchical Translation and Rotation (.htr) file 
[Header]	
#Header keywords are followed by a single value 
FileType HTR		#Single word string
DataType HTRS		#Translation followed by rotation and scale data
FileVersion 1		#integer
NumSegments 84		#integer
NumFrames 2		#integer
DataFrameRate 30		#integer, data frame rate in this file
EulerRotationOrder ZYX
CalibrationUnits mm
RotationUnits Degrees
GlobalAxisofGravity Y
BoneLengthAxis Y
ScaleFactor 1.00
[SegmentNames&Hierarchy]
#CHILD	PARENT
MASTER GLOBAL
root MASTER
chest root
L_mid_tent01 root
R_mid_tent01 root
spine01 root
Bip01_Neck chest
L_humerus chest
R_humerus chest
weapon_bone chest
Bip01_Head Bip01_Neck
eye_left_bone Bip01_Head
eye_right_bone Bip01_Head
L_forearm L_humerus
L_front_hand L_forearm
L_weapon_bone L_forearm
L_front_hand01_01 L_front_hand
L_front_hand02_01 L_front_hand
L_front_hand03_01 L_front_hand
L_front_hand01_02 L_front_hand01_01
L_front_hand02_02 L_front_hand02_01
L_front_hand03_02 L_front_hand03_01
R_forearm R_humerus
R_front_hand R_forearm
R_weapon_bone R_forearm
R_front_hand01_01 R_front_hand
R_front_hand02_01 R_front_hand
R_front_hand03_01 R_front_hand
R_front_hand01_02 R_front_hand01_01
R_front_hand02_02 R_front_hand02_01
R_front_hand03_02 R_front_hand03_01
null_rope01_connect L_mid_tent01
Rope1_Seg01 null_rope01_connect
Rope1_Seg02 Rope1_Seg01
Rope1_Seg03 Rope1_Seg02
Rope1_Seg04 Rope1_Seg03
Rope1_Seg05 Rope1_Seg04
Rope1_Seg06 Rope1_Seg05
Rope1_Seg07 Rope1_Seg06
Rope1_Seg09 Rope1_Seg07
L_mid_hand01 Rope1_Seg09
L_mid_hand02 Rope1_Seg09
L_mid_hand03 Rope1_Seg09
null_rope02_connect R_mid_tent01
Rope2_Seg01 null_rope02_connect
Rope2_Seg02 Rope2_Seg01
Rope2_Seg03 Rope2_Seg02
Rope2_Seg04 Rope2_Seg03
Rope2_Seg05 Rope2_Seg04
Rope2_Seg06 Rope2_Seg05
Rope2_Seg07 Rope2_Seg06
Rope2_Seg09 Rope2_Seg07
R_mid_hand01 Rope2_Seg09
R_mid_hand02 Rope2_Seg09
R_mid_hand03 Rope2_Seg09
spine02 spine01
spine03 spine02
pelvis spine03
null_rope03_connect pelvis
null_rope04_connect pelvis
Rope3_Seg01 null_rope03_connect
Rope3_Seg02 Rope3_Seg01
Rope3_Seg03 Rope3_Seg02
Rope3_Seg04 Rope3_Seg03
Rope3_Seg05 Rope3_Seg04
Rope3_Seg06 Rope3_Seg05
Rope3_Seg07 Rope3_Seg06
Rope3_Seg08 Rope3_Seg07
Rope3_Seg09 Rope3_Seg08
R_rear_hand01 Rope3_Seg09
R_rear_hand02 Rope3_Seg09
R_rear_hand03 Rope3_Seg09
Rope4_Seg01 null_rope04_connect
Rope4_Seg02 Rope4_Seg01
Rope4_Seg03 Rope4_Seg02
Rope4_Seg04 Rope4_Seg03
Rope4_Seg05 Rope4_Seg04
Rope4_Seg06 Rope4_Seg05
Rope4_Seg07 Rope4_Seg06
Rope4_Seg08 Rope4_Seg07
Rope4_Seg09 Rope4_Seg08
L_rear_hand01 Rope4_Seg09
L_rear_hand02 Rope4_Seg09
L_rear_hand03 Rope4_Seg09
[BasePosition]
#SegmentName Tx, Ty, Tz, Rx, Ry, Rz, BoneLength
MASTER 0.000000 0.000000 0.000000 -90.000000 0.000000 0.000000 10.000000 
root 0.000000 0.000000 0.000000 0.000000 0.000000 0.000000 10.000000 
chest 0.000000 0.000000 0.000000 0.000000 0.000000 0.000000 10.000000 
L_mid_tent01 0.000000 0.000000 0.000000 0.000000 0.000000 0.000000 10.000000 
R_mid_tent01 0.000000 0.000000 0.000000 0.000000 0.000000 0.000000 10.000000 
spine01 0.000000 0.000000 0.000000 0.000000 0.000000 0.000000 10.000000 
Bip01_Neck 0.000000 0.000000 0.000000 0.000000 0.000000 0.000000 10.000000 
L_humerus 0.000000 0.000000 0.000000 0.000000 0.000000 0.000000 10.000000 
R_humerus 0.000000 0.000000 0.000000 0.000000 0.000000 0.000000 10.000000 
weapon_bone 0.000000 0.000000 0.000000 0.000000 0.000000 0.000000 10.000000 
Bip01_Head 0.000000 0.000000 0.000000 0.000000 0.000000 0.000000 10.000000 
eye_left_bone 0.000000 0.000000 0.000000 0.000000 0.000000 0.000000 10.000000 
eye_right_bone 0.000000 0.000000 0.000000 0.000000 0.000000 0.000000 10.000000 
L_forearm 0.000000 0.000000 0.000000 0.000000 0.000000 0.000000 10.000000 
L_front_hand 0.000000 0.000000 0.000000 0.000000 0.000000 0.000000 10.000000 
L_weapon_bone 0.000000 0.000000 0.000000 0.000000 0.000000 0.000000 10.000000 
L_front_hand01_01 0.000000 0.000000 0.000000 0.000000 0.000000 0.000000 10.000000 
L_front_hand02_01 0.000000 0.000000 0.000000 0.000000 0.000000 0.000000 10.000000 
L_front_hand03_01 0.000000 0.000000 0.000000 0.000000 0.000000 0.000000 10.000000 
L_front_hand01_02 0.000000 0.000000 0.000000 0.000000 0.000000 0.000000 10.000000 
L_front_hand02_02 0.000000 0.000000 0.000000 0.000000 0.000000 0.000000 10.000000 
L_front_hand03_02 0.000000 0.000000 0.000000 0.000000 0.000000 0.000000 10.000000 
R_forearm 0.000000 0.000000 0.000000 0.000000 0.000000 0.000000 10.000000 
R_front_hand 0.000000 0.000000 0.000000 0.000000 0.000000 0.000000 10.000000 
R_weapon_bone 0.000000 0.000000 0.000000 0.000000 0.000000 0.000000 10.000000 
R_front_hand01_01 0.000000 0.000000 0.000000 0.000000 0.000000 0.000000 10.000000 
R_front_hand02_01 0.000000 0.000000 0.000000 0.000000 0.000000 0.000000 10.000000 
R_front_hand03_01 0.000000 0.000000 0.000000 0.000000 0.000000 0.000000 10.000000 
R_front_hand01_02 0.000000 0.000000 0.000000 0.000000 0.000000 0.000000 10.000000 
R_front_hand02_02 0.000000 0.000000 0.000000 0.000000 0.000000 0.000000 10.000000 
R_front_hand03_02 0.000000 0.000000 0.000000 0.000000 0.000000 0.000000 10.000000 
null_rope01_connect 0.000000 0.000000 0.000000 0.000000 0.000000 0.000000 10.000000 
Rope1_Seg01 0.000000 0.000000 0.000000 0.000000 0.000000 0.000000 10.000000 
Rope1_Seg02 0.000000 0.000000 0.000000 0.000000 0.000000 0.000000 10.000000 
Rope1_Seg03 0.000000 0.000000 0.000000 0.000000 0.000000 0.000000 10.000000 
Rope1_Seg04 0.000000 0.000000 0.000000 0.000000 0.000000 0.000000 10.000000 
Rope1_Seg05 0.000000 0.000000 0.000000 0.000000 0.000000 0.000000 10.000000 
Rope1_Seg06 0.000000 0.000000 0.000000 0.000000 0.000000 0.000000 10.000000 
Rope1_Seg07 0.000000 0.000000 0.000000 0.000000 0.000000 0.000000 10.000000 
Rope1_Seg09 0.000000 0.000000 0.000000 0.000000 0.000000 0.000000 10.000000 
L_mid_hand01 0.000000 0.000000 0.000000 0.000000 0.000000 0.000000 10.000000 
L_mid_hand02 0.000000 0.000000 0.000000 0.000000 0.000000 0.000000 10.000000 
L_mid_hand03 0.000000 0.000000 0.000000 0.000000 0.000000 0.000000 10.000000 
null_rope02_connect 0.000000 0.000000 0.000000 0.000000 0.000000 0.000000 10.000000 
Rope2_Seg01 0.000000 0.000000 0.000000 0.000000 0.000000 0.000000 10.000000 
Rope2_Seg02 0.000000 0.000000 0.000000 0.000000 0.000000 0.000000 10.000000 
Rope2_Seg03 0.000000 0.000000 0.000000 0.000000 0.000000 0.000000 10.000000 
Rope2_Seg04 0.000000 0.000000 0.000000 0.000000 0.000000 0.000000 10.000000 
Rope2_Seg05 0.000000 0.000000 0.000000 0.000000 0.000000 0.000000 10.000000 
Rope2_Seg06 0.000000 0.000000 0.000000 0.000000 0.000000 0.000000 10.000000 
Rope2_Seg07 0.000000 0.000000 0.000000 0.000000 0.000000 0.000000 10.000000 
Rope2_Seg09 0.000000 0.000000 0.000000 0.000000 0.000000 0.000000 10.000000 
R_mid_hand01 0.000000 0.000000 0.000000 0.000000 0.000000 0.000000 10.000000 
R_mid_hand02 0.000000 0.000000 0.000000 0.000000 0.000000 0.000000 10.000000 
R_mid_hand03 0.000000 0.000000 0.000000 0.000000 0.000000 0.000000 10.000000 
spine02 0.000000 0.000000 0.000000 0.000000 0.000000 0.000000 10.000000 
spine03 0.000000 0.000000 0.000000 0.000000 0.000000 0.000000 10.000000 
pelvis 0.000000 0.000000 0.000000 0.000000 0.000000 0.000000 10.000000 
null_rope03_connect 0.000000 0.000000 0.000000 0.000000 0.000000 0.000000 10.000000 
null_rope04_connect 0.000000 0.000000 0.000000 0.000000 0.000000 0.000000 10.000000 
Rope3_Seg01 0.000000 0.000000 0.000000 0.000000 0.000000 0.000000 10.000000 
Rope3_Seg02 0.000000 0.000000 0.000000 0.000000 0.000000 0.000000 10.000000 
Rope3_Seg03 0.000000 0.000000 0.000000 0.000000 0.000000 0.000000 10.000000 
Rope3_Seg04 0.000000 0.000000 0.000000 0.000000 0.000000 0.000000 10.000000 
Rope3_Seg05 0.000000 0.000000 0.000000 0.000000 0.000000 0.000000 10.000000 
Rope3_Seg06 0.000000 0.000000 0.000000 0.000000 0.000000 0.000000 10.000000 
Rope3_Seg07 0.000000 0.000000 0.000000 0.000000 0.000000 0.000000 10.000000 
Rope3_Seg08 0.000000 0.000000 0.000000 0.000000 0.000000 0.000000 10.000000 
Rope3_Seg09 0.000000 0.000000 0.000000 0.000000 0.000000 0.000000 10.000000 
R_rear_hand01 0.000000 0.000000 0.000000 0.000000 0.000000 0.000000 10.000000 
R_rear_hand02 0.000000 0.000000 0.000000 0.000000 0.000000 0.000000 10.000000 
R_rear_hand03 0.000000 0.000000 0.000000 0.000000 0.000000 0.000000 10.000000 
Rope4_Seg01 0.000000 0.000000 0.000000 0.000000 0.000000 0.000000 10.000000 
Rope4_Seg02 0.000000 0.000000 0.000000 0.000000 0.000000 0.000000 10.000000 
Rope4_Seg03 0.000000 0.000000 0.000000 0.000000 0.000000 0.000000 10.000000 
Rope4_Seg04 0.000000 0.000000 0.000000 0.000000 0.000000 0.000000 10.000000 
Rope4_Seg05 0.000000 0.000000 0.000000 0.000000 0.000000 0.000000 10.000000 
Rope4_Seg06 0.000000 0.000000 0.000000 0.000000 0.000000 0.000000 10.000000 
Rope4_Seg07 0.000000 0.000000 0.000000 0.000000 0.000000 0.000000 10.000000 
Rope4_Seg08 0.000000 0.000000 0.000000 0.000000 0.000000 0.000000 10.000000 
Rope4_Seg09 0.000000 0.000000 0.000000 0.000000 0.000000 0.000000 10.000000 
L_rear_hand01 0.000000 0.000000 0.000000 0.000000 0.000000 0.000000 10.000000 
L_rear_hand02 0.000000 0.000000 0.000000 0.000000 0.000000 0.000000 10.000000 
L_rear_hand03 0.000000 0.000000 0.000000 0.000000 0.000000 0.000000 10.000000 
#Beginning of Data. Separated by tabs
#Fr	Tx	Ty	Tz	Rx	Ry	Rz	SF
[MASTER]
46 -427.940704 -12473.168945 -125.264450 0.000000 -0.002347 -90.000000 12481.136719
47 -465.367981 -12721.873047 -131.110245 0.000000 -0.002347 -90.000000 12731.057617
[root]
46 -62.822281 16.502291 1500.000000 -68.965813 -27.024603 167.090057 1501.405640
47 -62.822281 16.502293 1500.000000 -75.402466 -30.509546 175.188049 1501.405640
[chest]
46 -84.512650 -34.090519 0.000000 13.095002 -4.877738 -176.365540 91.129311
47 -84.512650 -34.090519 0.000000 6.485724 -4.780625 -177.615005 91.129311
[L_mid_tent01]
46 27.300236 22.177580 -249.918259 -2.707398 3.997736 30.386507 252.381226
47 27.300251 22.177582 -249.918259 -3.196961 7.227473 35.430279 252.381226
[R_mid_tent01]
46 23.228794 24.509907 226.238495 -174.607452 -12.799505 40.923958 228.744751
47 23.228794 24.509907 226.238495 -175.445541 -12.790673 41.633606 228.744751
[spine01]
46 -0.361383 -0.195265 0.000000 0.001687 0.001632 1.890996 0.410763
47 -0.361383 -0.195265 0.000000 0.001687 0.001632 1.890996 0.410763
[Bip01_Neck]
46 165.484543 71.581718 0.000119 176.643677 -1.657967 43.431911 180.302734
47 165.484543 71.581718 0.000119 176.643677 -1.657967 43.431911 180.302734
[L_humerus]
46 -13.983130 -135.272980 -120.471481 156.317398 70.210052 -112.010239 181.680161
47 -13.983130 -135.272980 -120.471481 156.317398 70.210068 -112.010262 181.680161
[R_humerus]
46 -13.983309 -135.273102 125.287651 -172.382263 -66.903831 -92.553993 184.909012
47 -13.983309 -135.273102 125.287651 -172.382263 -66.903831 -92.553993 184.909012
[weapon_bone]
46 235.964890 -300.705902 0.000000 0.000000 -89.951546 -128.212341 382.234833
47 235.964890 -300.705902 0.000000 0.000000 -89.951546 -128.212341 382.234833
[Bip01_Head]
46 213.444595 185.716339 11.767215 21.091934 4.686511 -43.863953 283.174194
47 213.444656 185.716263 11.768190 21.262119 4.367702 -43.870296 283.174225
[eye_left_bone]
46 -24.626970 125.451866 -64.772606 0.000000 -90.000000 -99.840431 143.318359
47 -24.626970 125.451866 -64.772606 0.000000 -90.000000 -99.840431 143.318359
[eye_right_bone]
46 -24.626970 125.451866 64.327362 0.000000 -89.965736 80.156380 143.117676
47 -24.626970 125.451866 64.327362 0.000000 -89.965736 80.156380 143.117676
[L_forearm]
46 322.776093 0.000000 -0.000119 0.000119 -0.002344 -95.807457 322.776093
47 322.776093 0.000000 -0.000119 0.000119 -0.002344 -95.807457 322.776093
[L_front_hand]
46 241.149185 -0.042021 -3.300071 -178.667953 -1.835447 -27.422350 241.171753
47 241.149185 -0.042021 -3.300071 -178.667953 -1.835447 -27.422350 241.171753
[L_weapon_bone]
46 156.183838 0.000000 0.000000 0.000014 0.000007 0.000001 156.183838
47 156.183838 0.000000 0.000000 0.000014 0.000007 0.000001 156.183838
[L_front_hand01_01]
46 86.095154 20.947098 -0.655860 -0.366594 -0.477154 75.385574 88.609184
47 86.095154 20.947098 -0.655860 -0.366594 -0.477154 75.385574 88.609184
[L_front_hand02_01]
46 86.935165 -11.437475 24.513514 154.399796 -59.883835 -61.369587 91.046425
47 86.935165 -11.437475 24.513514 154.399796 -59.883835 -61.369587 91.046425
[L_front_hand03_01]
46 86.637497 -14.123976 -20.424902 -153.913849 58.118122 -62.702866 90.126129
47 86.637497 -14.123976 -20.424902 -153.913849 58.118122 -62.702866 90.126129
[L_front_hand01_02]
46 71.020905 -0.000179 0.000030 0.000334 -0.002323 -106.379684 71.020905
47 71.020905 -0.000179 0.000030 0.000334 -0.002323 -106.379684 71.020905
[L_front_hand02_02]
46 71.020927 -0.000119 0.000060 0.000334 -0.002323 -106.379684 71.020927
47 71.020927 -0.000119 0.000060 0.000334 -0.002323 -106.379684 71.020927
[L_front_hand03_02]
46 71.020905 -0.000060 0.000060 0.000334 -0.002323 -106.379684 71.020905
47 71.020905 -0.000060 0.000060 0.000334 -0.002323 -106.379684 71.020905
[R_forearm]
46 322.776428 -0.000060 0.000030 0.209504 0.012586 -94.339050 322.776428
47 322.776428 -0.000060 0.000030 0.209504 0.012586 -94.339050 322.776428
[R_front_hand]
46 238.847015 -0.006795 2.210259 -2.635298 -10.645461 -26.312506 238.857239
47 238.847015 -0.006795 2.210259 -2.635298 -10.645461 -26.312506 238.857239
[R_weapon_bone]
46 155.664093 0.002503 -0.000030 0.003487 0.001180 -90.988930 155.664078
47 155.664093 0.002503 -0.000030 0.003487 0.001180 -90.988930 155.664078
[R_front_hand01_01]
46 87.624611 14.231146 22.918642 -154.633499 -59.950619 61.746044 91.683487
47 87.624611 14.231146 22.918642 -154.633499 -59.950619 61.746044 91.683487
[R_front_hand02_01]
46 89.356956 14.367283 -19.491137 154.602661 58.302849 63.744389 92.579636
47 89.356956 14.367283 -19.491137 154.602661 58.302849 63.744389 92.579636
[R_front_hand03_01]
46 87.286232 -22.307278 -0.143439 0.162155 -0.423168 -75.767921 90.091743
47 87.286232 -22.307278 -0.143439 0.162155 -0.423168 -75.767921 90.091743
[R_front_hand01_02]
46 71.020905 0.000060 0.000119 0.002323 -0.000334 106.381714 71.020905
47 71.020905 0.000060 0.000119 0.002323 -0.000334 106.381714 71.020905
[R_front_hand02_02]
46 71.020844 -0.000030 -0.000119 0.002323 -0.000334 106.381714 71.020836
47 71.020844 -0.000030 -0.000119 0.002323 -0.000334 106.381714 71.020836
[R_front_hand03_02]
46 71.020905 0.000000 0.000030 0.002323 -0.000334 106.381714 71.020905
47 71.020905 0.000000 0.000030 0.002323 -0.000334 106.381714 71.020905
[null_rope01_connect]
46 328.732483 0.000000 -0.000238 23.517372 72.758415 -68.535797 328.732483
47 328.732483 0.000000 -0.000238 26.172890 80.248375 -69.092606 328.732483
[Rope1_Seg01]
46 0.000035 0.000999 0.000000 -164.394485 37.468304 51.086987 0.000999
47 0.000035 0.001021 0.000000 175.166214 35.501205 45.180992 0.001022
[Rope1_Seg02]
46 139.999863 -0.000179 0.000000 10.810983 -27.547314 14.616390 139.999863
47 139.999863 -0.000179 0.000000 18.632421 -27.876637 7.642266 139.999863
[Rope1_Seg03]
46 139.999924 0.000060 -0.000060 -1.719906 -23.485292 20.411610 139.999924
47 139.999924 0.000060 -0.000060 0.742738 -24.983204 17.013372 139.999924
[Rope1_Seg04]
46 139.999924 -0.000060 -0.000119 -1.006543 -11.293950 11.321527 139.999924
47 139.999924 -0.000060 -0.000119 -0.531461 -11.681570 9.432915 139.999924
[Rope1_Seg05]
46 139.999832 0.000119 -0.000060 -3.799907 -18.972597 24.027510 139.999832
47 139.999832 0.000119 -0.000060 -1.190513 -10.711763 14.087168 139.999832
[Rope1_Seg06]
46 139.999954 0.000119 -0.000060 -3.391201 -20.113791 25.444864 139.999954
47 139.999954 0.000119 -0.000060 -1.147004 -15.001682 22.035891 139.999954
[Rope1_Seg07]
46 139.999985 0.000060 0.000000 1.874688 -9.776203 12.021955 139.999985
47 139.999985 0.000060 0.000000 1.266004 -9.576570 13.482220 139.999985
[Rope1_Seg09]
46 121.602913 0.000119 -0.000089 -89.793175 -1.359789 0.847147 121.602913
47 121.602913 0.000119 -0.000089 -89.793175 -1.359789 0.847147 121.602913
[L_mid_hand01]
46 103.859421 1.038730 8.195221 130.544373 -67.584534 -38.866943 104.187431
47 103.859421 1.038730 8.195221 130.544373 -67.584534 -38.866943 104.187431
[L_mid_hand02]
46 105.572853 -4.139662 -10.864139 -168.923172 43.409309 -73.498886 106.211075
47 105.572853 -4.139662 -10.864139 -168.923172 43.409309 -73.498894 106.211075
[L_mid_hand03]
46 104.641464 17.579376 -3.913581 -6.012627 17.808174 74.893669 106.179977
47 104.641464 17.579376 -3.913581 -6.012627 17.808178 74.893677 106.179977
[null_rope02_connect]
46 328.732849 0.000179 -0.000119 161.304764 -62.196812 118.981079 328.732849
47 328.732849 0.000179 -0.000119 142.887878 -65.886597 137.075485 328.732849
[Rope2_Seg01]
46 -0.000045 -0.000035 0.000000 111.410866 20.694012 102.900421 0.000057
47 -0.000044 -0.000031 0.000000 124.501198 24.488335 114.366508 0.000054
[Rope2_Seg02]
46 139.999741 -0.000060 -0.000119 9.910247 -1.519478 -6.015791 139.999756
47 139.999741 -0.000060 -0.000119 15.800890 -3.699356 -5.829118 139.999756
[Rope2_Seg03]
46 140.000107 0.000030 0.000000 17.528841 -4.751387 -10.087174 140.000107
47 140.000107 0.000030 0.000000 19.541458 -8.922970 -7.797405 140.000107
[Rope2_Seg04]
46 139.999802 0.000000 -0.000060 23.444300 -15.980336 -14.717900 139.999802
47 139.999802 0.000000 -0.000060 11.199187 -19.378756 -2.763322 139.999802
[Rope2_Seg05]
46 139.999985 -0.000060 0.000119 34.515697 -32.496811 -36.719040 139.999985
47 139.999985 -0.000060 0.000119 23.849365 -32.917065 -24.384134 139.999985
[Rope2_Seg06]
46 139.999893 -0.000030 -0.000119 4.071367 -23.723127 -10.315403 139.999893
47 139.999893 -0.000030 -0.000119 4.217884 -23.815260 -11.692230 139.999893
[Rope2_Seg07]
46 139.999893 0.000060 -0.000060 -0.532167 -8.573071 -2.805561 139.999893
47 139.999893 0.000060 -0.000060 -0.613754 -8.723859 -2.793962 139.999893
[Rope2_Seg09]
46 121.338966 0.000089 -0.000060 33.793236 -1.359788 -0.847141 121.338966
47 121.338966 0.000089 -0.000060 33.793236 -1.359788 -0.847141 121.338966
[R_mid_hand01]
46 104.680779 11.144459 -10.335981 -16.212063 45.237247 70.462852 105.778534
47 104.680779 11.144459 -10.335981 -16.212063 45.237247 70.462852 105.778534
[R_mid_hand02]
46 104.070427 2.443552 8.231699 49.067368 -67.749771 39.286453 104.424065
47 104.070427 2.443552 8.231699 49.067368 -67.749771 39.286453 104.424065
[R_mid_hand03]
46 106.028137 -11.221827 -5.996406 -177.101105 15.551026 -76.585571 106.788818
47 106.028137 -11.221827 -5.996406 -177.101105 15.551026 -76.585571 106.788818
[spine02]
46 129.756927 0.001550 0.000119 -1.023899 -3.926965 6.770993 129.756927
47 129.756927 0.001550 0.000119 -1.023899 -3.926965 6.770993 129.756927
[spine03]
46 78.614311 0.087583 -4.898908 1.040681 4.146420 4.212376 78.766846
47 78.614319 0.087589 -4.898909 1.040681 4.146420 4.212376 78.766853
[pelvis]
46 169.435242 0.051022 0.000000 -15.320837 -0.191005 -10.717353 169.435257
47 169.435242 0.051022 0.000000 -11.973700 -0.191874 -10.720293 169.435257
[null_rope03_connect]
46 -1.257226 -2.466202 137.391083 65.262398 79.010307 0.815492 137.418976
47 -1.257226 -2.466202 137.391083 61.513519 86.236877 0.065386 137.418976
[null_rope04_connect]
46 -1.259640 -2.480268 -137.844437 65.262398 79.010307 0.815492 137.872513
47 -1.259640 -2.480268 -137.844437 61.513519 86.236877 0.065386 137.872513
[Rope3_Seg01]
46 0.000035 0.000999 0.000000 -133.493118 -18.482254 109.606430 0.000999
47 0.000035 0.001021 0.000000 -135.616241 -17.725508 118.821167 0.001022
[Rope3_Seg02]
46 139.999924 -0.000119 0.000060 -3.148111 -5.424320 -25.095695 139.999924
47 139.999924 -0.000119 0.000060 -3.462726 -10.110081 -29.230255 139.999924
[Rope3_Seg03]
46 139.999924 -0.000119 0.000119 -17.137972 -4.553819 -29.092449 139.999924
47 139.999924 -0.000119 0.000119 -32.910862 -7.319304 -28.923481 139.999924
[Rope3_Seg04]
46 139.999924 0.000119 0.000000 -66.861870 14.242227 -30.509195 139.999924
47 139.999924 0.000119 0.000000 -94.169556 14.544727 -29.157242 139.999924
[Rope3_Seg05]
46 139.999924 -0.000238 0.000060 -17.018570 16.224463 -0.194343 139.999924
47 139.999924 -0.000238 0.000060 -7.720585 13.346479 7.498675 139.999924
[Rope3_Seg06]
46 139.999893 -0.000119 -0.000060 -4.417913 7.416391 2.036483 139.999893
47 139.999893 -0.000119 -0.000060 -1.579644 5.504620 4.106009 139.999893
[Rope3_Seg07]
46 139.999771 0.000060 -0.000119 -0.724527 2.242456 0.808635 139.999771
47 139.999771 0.000060 -0.000119 -0.388285 3.072361 2.435485 139.999771
[Rope3_Seg08]
46 139.999985 -0.000060 0.000000 0.535796 0.001652 0.001667 139.999985
47 139.999985 -0.000060 0.000000 0.279813 0.934584 0.750768 139.999985
[Rope3_Seg09]
46 90.185997 -0.000179 -0.000060 89.793228 -1.359877 -0.847183 90.185997
47 90.185997 -0.000179 -0.000060 89.793228 -1.359877 -0.847183 90.185997
[R_rear_hand01]
46 103.366196 -6.073594 -10.757982 -177.714203 24.565960 -73.910950 104.101845
47 103.366196 -6.073594 -10.757982 -177.714203 24.565960 -73.910950 104.101845
[R_rear_hand02]
46 100.509819 12.039542 -7.992327 -12.874829 36.868488 72.167213 101.543350
47 100.509819 12.039542 -7.992327 -12.874829 36.868488 72.167213 101.543350
[R_rear_hand03]
46 101.539970 5.215704 5.435467 71.484581 -71.816628 21.513813 101.819031
47 101.539970 5.215704 5.435467 71.484581 -71.816628 21.513813 101.819031
[Rope4_Seg01]
46 0.000008 0.001006 -0.000153 49.700535 -19.705208 78.292503 0.001017
47 0.000008 0.001027 -0.000153 49.295937 -22.631939 80.119530 0.001038
[Rope4_Seg02]
46 139.999985 0.000060 0.000119 1.601572 -28.278925 23.989750 139.999985
47 139.999985 0.000060 0.000119 -0.026345 -31.771824 31.551546 139.999985
[Rope4_Seg03]
46 139.999924 0.000000 -0.000238 10.173030 -23.632826 27.833132 139.999924
47 139.999924 0.000000 -0.000238 8.989982 -20.141037 29.002958 139.999924
[Rope4_Seg04]
46 139.999985 0.000000 0.000119 10.468699 -12.677654 20.968376 139.999985
47 139.999985 0.000000 0.000119 7.583224 -10.540900 18.136051 139.999985
[Rope4_Seg05]
46 139.999802 -0.000060 -0.000119 12.847235 -17.731092 52.767708 139.999802
47 139.999802 -0.000060 -0.000119 10.842257 -17.558880 41.680912 139.999802
[Rope4_Seg06]
46 139.999924 0.000000 0.000060 3.060524 0.118121 21.589342 139.999924
47 139.999924 0.000000 0.000060 4.746425 -2.962193 23.051453 139.999924
[Rope4_Seg07]
46 139.999802 0.000000 0.000000 0.391134 0.480792 7.749297 139.999802
47 139.999802 0.000000 0.000000 1.159927 -0.232192 8.390187 139.999802
[Rope4_Seg08]
46 139.999924 0.000000 0.000119 -1.489851 0.246878 3.634440 139.999924
47 139.999924 0.000000 0.000119 -1.112840 -0.028095 4.068330 139.999924
[Rope4_Seg09]
46 90.185791 0.000060 0.000060 -135.617828 2.228885 0.850567 90.185791
47 90.185791 0.000060 0.000060 -135.617828 2.228885 0.850567 90.185791
[L_rear_hand01]
46 101.696655 -8.392275 -7.654577 -12.874829 -36.868488 107.832764 102.329041
47 101.696655 -8.392275 -7.654577 -12.874829 -36.868488 107.832764 102.329041
[L_rear_hand02]
46 102.726799 -1.568258 5.773216 71.484581 71.816628 158.486160 102.900848
47 102.726799 -1.568258 5.773216 71.484581 71.816628 158.486160 102.900848
[L_rear_hand03]
46 104.552910 9.721220 -10.420293 -177.714203 -24.565960 -106.089035 105.519653
47 104.552910 9.721220 -10.420293 -177.714203 -24.565960 -106.089035 105.519653
